<svg width="28" height="29" viewBox="0 0 28 29" fill="none" xmlns="http://www.w3.org/2000/svg">
<path d="M27.4964 10.7389C25.793 4.41691 20.0019 0 13.4169 0C12.8333 0 12.2424 0.0350547 11.6636 0.105164L10.9937 2.20241C12.3871 3.45592 13.3804 5.06723 13.8643 6.86107C15.2528 12.0117 12.167 17.3255 6.98627 18.7048C5.18438 19.1859 3.2755 19.1363 1.49306 18.5621L0 20.1867C2.29552 25.5405 7.55528 29 13.3999 29H13.4011C14.6692 29 15.941 28.8332 17.1775 28.5032C20.9418 27.4999 24.0884 25.1005 26.0362 21.7449C27.9876 18.3905 28.5056 14.4813 27.4964 10.7389ZM23.9328 20.5373C22.3084 23.3332 19.687 25.3338 16.5501 26.169C15.5179 26.4446 14.4589 26.5836 13.4023 26.5836C9.37541 26.5836 5.68044 24.6121 3.44207 21.4076C4.84029 21.5297 6.25432 21.4052 7.61608 21.0413C14.0917 19.3164 17.9484 12.6753 16.2133 6.23613C15.8474 4.87625 15.248 3.60339 14.4467 2.46109C19.4986 2.88779 23.8173 6.42833 25.1486 11.3638C25.9888 14.4837 25.5559 17.7414 23.9328 20.5373Z" fill="white"/>
</svg>