<svg width="25" height="26" viewBox="0 0 25 26" fill="none" xmlns="http://www.w3.org/2000/svg">
<path d="M15.8485 19.5304V20.7203C15.8485 22.6919 14.2504 24.29 12.2788 24.29C10.3073 24.29 8.70913 22.6919 8.70913 20.7203V19.5304M15.8485 19.5304H8.70913M15.8485 19.5304H20.1208C20.576 19.5304 20.8047 19.5304 20.989 19.4683C21.3411 19.3496 21.6165 19.073 21.7353 18.721C21.7976 18.536 21.7976 18.3066 21.7976 17.8478C21.7976 17.647 21.7974 17.5467 21.7817 17.451C21.7521 17.2701 21.6819 17.0986 21.575 16.9498C21.5185 16.8711 21.4466 16.7994 21.3051 16.6578L20.8417 16.1943C20.6921 16.0447 20.6081 15.8419 20.6081 15.6304V11.2011C20.6081 6.60101 16.879 2.87186 12.2788 2.87187C7.67869 2.87188 3.94955 6.60102 3.94955 11.2011V15.6304C3.94955 15.842 3.86535 16.0447 3.71581 16.1943L3.25234 16.6578C3.1104 16.7997 3.03932 16.871 2.98276 16.9498C2.87585 17.0987 2.80504 17.2701 2.77536 17.451C2.75965 17.5467 2.75965 17.647 2.75965 17.8479C2.75965 18.3066 2.75965 18.5359 2.82206 18.7209C2.94081 19.073 3.21752 19.3496 3.56956 19.4683C3.75388 19.5304 3.98169 19.5304 4.43688 19.5304H8.70913M19.4403 1.69824C21.0814 2.93492 22.3743 4.57553 23.193 6.46029M5.11799 1.69824C3.47686 2.93492 2.18398 4.57553 1.36523 6.46029" stroke="white" stroke-width="2" stroke-linecap="round" stroke-linejoin="round"/>
</svg>
