<svg width="117" height="105" viewBox="0 0 117 105" fill="none" xmlns="http://www.w3.org/2000/svg">
<path d="M58.5 83C72.031 83 83 72.031 83 58.5C83 44.969 72.031 34 58.5 34C44.969 34 34 44.969 34 58.5C34 72.031 44.969 83 58.5 83Z" stroke="#F5A747" stroke-width="5" stroke-linecap="round" stroke-linejoin="round"/>
<path d="M98.5 3V18.5M98.5 18.5V34M98.5 18.5H83M98.5 18.5H114" stroke="#F5A747" stroke-width="5" stroke-linecap="round" stroke-linejoin="round"/>
<path d="M114 46.3125V89.625C114 96.4597 108.478 102 101.667 102H15.3333C8.52182 102 3 96.4597 3 89.625V33.9375C3 27.103 8.52182 21.5625 15.3333 21.5625H24.5833C28.4653 21.5625 32.1208 19.7286 34.45 16.6125L40.925 7.95C43.2542 4.83391 46.9097 3 50.7917 3H66.2083" stroke="#F5A747" stroke-width="5" stroke-linecap="round" stroke-linejoin="round"/>
</svg>
