<svg width="20" height="19" viewBox="0 0 20 19" fill="none" xmlns="http://www.w3.org/2000/svg">
<g opacity="0.15">
<path d="M19 9.61523C19 10.7198 18.1046 11.6152 17 11.6152C15.8954 11.6152 15 10.7198 15 9.61523C15 8.51063 15.8954 7.61523 17 7.61523C18.1046 7.61523 19 8.51063 19 9.61523Z" fill="white"/>
<path d="M12 15.6152C12 16.7198 11.1046 17.6152 10 17.6152C8.8954 17.6152 8 16.7198 8 15.6152C8 14.5106 8.8954 13.6152 10 13.6152C11.1046 13.6152 12 14.5106 12 15.6152Z" fill="white"/>
<path d="M5 3.61523C5 4.7198 4.10457 5.61523 3 5.61523C1.89543 5.61523 1 4.7198 1 3.61523C1 2.51066 1.89543 1.61523 3 1.61523C4.10457 1.61523 5 2.51066 5 3.61523Z" fill="white"/>
</g>
<path d="M17 1.61523V7.61523M17 7.61523C15.8954 7.61523 15 8.51063 15 9.61523C15 10.7198 15.8954 11.6152 17 11.6152M17 7.61523C18.1046 7.61523 19 8.51063 19 9.61523C19 10.7198 18.1046 11.6152 17 11.6152M17 11.6152V17.6152M10 1.61523V13.6152M10 13.6152C8.8954 13.6152 8 14.5106 8 15.6152C8 16.7198 8.8954 17.6152 10 17.6152C11.1046 17.6152 12 16.7198 12 15.6152C12 14.5106 11.1046 13.6152 10 13.6152ZM3 5.61523V17.6152M3 5.61523C4.10457 5.61523 5 4.7198 5 3.61523C5 2.51066 4.10457 1.61523 3 1.61523C1.89543 1.61523 1 2.51066 1 3.61523C1 4.7198 1.89543 5.61523 3 5.61523Z" stroke="#F5A747" stroke-width="1.5" stroke-linecap="round"/>
</svg>
