<svg width="28" height="27" viewBox="0 0 28 27" fill="none" xmlns="http://www.w3.org/2000/svg">
<path d="M20.3369 0C20.1534 0 19.9241 0 19.7406 0C17.4927 0 15.2907 0.871621 13.6851 2.38549C12.0795 0.825746 9.87749 0 7.62962 0C7.40025 0 7.21675 0 7.03325 0C4.92301 0.137624 2.99627 1.14687 1.71178 2.79836C0.335534 4.5416 -0.260838 6.78947 0.106161 8.99146L1.89528 8.71621C1.62003 7.01884 2.07878 5.2756 3.1339 3.94523C4.14314 2.70661 5.56526 1.92674 7.17088 1.83499C7.35438 1.83499 7.492 1.83499 7.6755 1.83499C9.73987 1.83499 11.7125 2.75249 13.0428 4.31223L13.731 5.13798L14.4191 4.31223C15.7495 2.70661 17.7221 1.83499 19.7864 1.83499C19.9699 1.83499 20.1076 1.83499 20.2452 1.83499C22.4013 1.97262 24.1904 3.25711 25.062 5.2756C25.9795 7.38584 25.6584 9.77133 24.2363 11.5146L13.6851 24.4513L8.68474 18.4417L7.26263 19.5885L12.6758 26.1486C12.9052 26.4697 13.2722 26.6074 13.6851 26.6074C14.0521 26.6074 14.4191 26.4239 14.6943 26.1486L25.7043 12.6614C27.5852 10.3677 27.998 7.24822 26.8053 4.5416C25.5667 1.88087 23.1812 0.183499 20.3369 0Z" fill="white"/>
<path d="M9.23544 17.1114C9.64831 17.1114 10.0153 16.882 10.1529 16.515L11.3916 12.9368L12.0797 14.4965C12.2173 14.8176 12.5384 15.047 12.9054 15.047H17.3094V13.212H13.5018L12.1256 10.0467C11.9879 9.67967 11.6668 9.49617 11.2539 9.49617C10.8869 9.49617 10.5658 9.77142 10.4282 10.0925L9.37306 13.1203L7.99682 8.1658C7.90507 7.7988 7.53807 7.52355 7.17107 7.47768C6.7582 7.4318 6.43708 7.70705 6.25358 8.02817L4.18921 13.1203H0.88623V14.9553H4.83146C5.19846 14.9553 5.51958 14.7259 5.70308 14.4048L6.98758 11.2394L8.40969 16.4233C8.45557 16.8361 8.82257 17.1114 9.23544 17.1114Z" fill="white"/>
</svg>
