<svg width="41" height="22" viewBox="0 0 41 22" fill="none" xmlns="http://www.w3.org/2000/svg">
<path d="M6.89362 18.3333H4.2766C3.57447 18.3333 3 17.7333 3 17V5C3 4.26667 3.57447 3.66667 4.2766 3.66667H6.89362V5.66667V2.33333C6.89362 1.6 7.46809 1 8.17021 1H10.7234C11.4255 1 12 1.6 12 2.33333V19.6667C12 20.4 11.4255 21 10.7234 21H8.17021C7.46809 21 6.89362 20.4 6.89362 19.6667V16.3333V18.3333Z" stroke="white" stroke-width="2" stroke-linejoin="round"/>
<path d="M34.5385 16.3333V19.6667C34.5385 20.4 33.9154 21 33.1538 21H30.3846C29.6231 21 29 20.4 29 19.6667V2.33333C29 1.6 29.6231 1 30.3846 1H33.1538C33.9154 1 34.5385 1.6 34.5385 2.33333V5.66667V3.66667H36.6154C37.3769 3.66667 38 4.26667 38 5V17C38 17.7333 37.3769 18.3333 36.6154 18.3333H34.5385V16.3333Z" stroke="white" stroke-width="2" stroke-linejoin="round"/>
<path d="M29 11H12" stroke="white" stroke-width="2"/>
<path d="M3 11H0" stroke="white" stroke-width="2"/>
<path d="M41 11H38" stroke="white" stroke-width="2"/>
</svg>
